<?xml version="1.0" encoding="UTF-8" standalone="no"?><!DOCTYPE svg PUBLIC "-//W3C//DTD SVG 1.1//EN" "http://www.w3.org/Graphics/SVG/1.1/DTD/svg11.dtd"><svg width="100%" height="100%" viewBox="0 0 248 195" version="1.1" xmlns="http://www.w3.org/2000/svg" xmlns:xlink="http://www.w3.org/1999/xlink" xml:space="preserve" xmlns:serif="http://www.serif.com/" style="fill-rule:evenodd;clip-rule:evenodd;stroke-linejoin:round;stroke-miterlimit:2;"><rect id="Page-1" serif:id="Page 1" x="0" y="0" width="247.733" height="194.876" style="fill:none;"/><clipPath id="_clip1"><rect x="0" y="0" width="247.733" height="194.876"/></clipPath><g clip-path="url(#_clip1)"><g id="Ebene-1" serif:id="Ebene 1"><path d="M67.975,32.986c10.638,0.936 21.297,0.216 31.945,0.395c6.743,0.112 13.491,0.125 20.233,-0.034c2.613,-0.061 3.514,0.666 3.505,3.399c-0.09,27.92 -0.079,55.841 -0.014,83.761c0.005,2.408 -0.67,3.285 -3.184,3.272c-17.097,-0.09 -34.195,-0.129 -51.292,0.018c-3.599,0.031 -3.102,-2.103 -3.102,-4.277c0.003,-28.391 0.002,-56.782 0.002,-85.173c0.123,-1.171 0.356,-2.19 1.907,-1.361" style="fill:#0078be;fill-rule:nonzero;"/><path d="M123.889,194.71c-40.681,0 -81.363,0.004 -122.044,-0.041c-0.627,0 -1.881,0.843 -1.844,-0.87c0.032,-1.505 1.2,-0.728 1.806,-0.728c81.363,-0.047 162.726,-0.054 244.089,-0.016c0.618,0.001 1.87,-0.874 1.836,0.867c-0.03,1.524 -1.195,0.748 -1.799,0.749c-40.681,0.043 -81.363,0.039 -122.044,0.039" style="fill:#0078bf;fill-rule:nonzero;"/><path d="M8.287,187.708c-0.442,-0.069 -1.216,-0.16 -1.977,-0.314c-4.168,-0.846 -6.251,-4.174 -5.193,-8.286c0.103,-0.402 0.206,-0.882 0.681,-0.969c0.51,-0.094 0.747,0.365 0.884,0.737c0.329,0.897 0.563,1.828 0.868,2.735c0.861,2.56 2.806,3.971 5.386,3.928c2.395,-0.039 4.362,-1.46 5.031,-3.633c0.786,-2.555 0.062,-4.701 -2.157,-6.304c-1.663,-1.202 -3.619,-1.849 -5.41,-2.809c-3.936,-2.108 -5.337,-5.315 -4.237,-9.617c1.038,-4.059 4.851,-6.176 9.285,-5.184c0.875,0.195 1.742,0.801 2.668,-0.065c0.442,-0.414 0.885,0.058 1.15,0.486c0.94,1.518 1.411,3.163 1.282,4.96c-0.031,0.429 -0.1,0.864 -0.591,1.001c-0.484,0.136 -0.795,-0.174 -1.042,-0.529c-0.48,-0.686 -0.889,-1.43 -1.422,-2.071c-1.423,-1.714 -3.254,-2.395 -5.45,-1.897c-1.847,0.419 -2.862,1.649 -3.155,3.487c-0.357,2.24 0.081,4.245 2.138,5.488c2.147,1.297 4.482,2.294 6.576,3.666c4.556,2.985 4.917,9.566 0.83,13.16c-1.661,1.462 -3.649,1.986 -6.145,2.03" style="fill:#2b2a29;fill-rule:nonzero;"/><path d="M148.285,179.111c0,1.138 -0.003,2.276 0.001,3.413c0.003,1.078 0.2,2.017 1.436,2.385c0.459,0.136 0.855,0.458 0.766,1.058c-0.086,0.574 -0.547,0.807 -1.003,0.903c-1.777,0.376 -3.574,0.333 -5.357,0.045c-0.525,-0.085 -1.063,-0.364 -1.135,-0.994c-0.066,-0.576 0.39,-0.893 0.841,-1.023c1.071,-0.308 1.315,-1.093 1.359,-2.051c0.313,-6.824 0.309,-13.648 0.002,-20.471c-0.043,-0.955 -0.286,-1.738 -1.354,-2.057c-0.514,-0.153 -1.03,-0.52 -0.82,-1.186c0.178,-0.565 0.71,-0.832 1.269,-0.849c3.47,-0.105 6.958,-0.5 10.406,0.018c3.083,0.464 5.111,2.809 5.46,5.852c0.485,4.221 -0.912,7.254 -4.08,8.784c-1.99,0.961 -4.12,1.253 -6.296,1.08c-1.187,-0.094 -1.638,0.332 -1.585,1.5c0.055,1.195 0.012,2.395 0.012,3.593l0.078,0" style="fill:#2b2a29;fill-rule:nonzero;"/><path d="M145.639,40.745c3.292,0 6.592,-0.139 9.876,0.026c9.975,0.502 16.185,5.647 17.987,14.735c2.06,10.395 -2.06,19.877 -10.485,23.988c-5.054,2.466 -10.47,3.269 -16.009,2.828c-3.27,-0.259 -4.562,0.788 -4.428,4.137c0.211,5.325 0.078,10.662 0.171,15.993c0.062,3.596 0.025,7.003 4.41,8.827c2.728,1.134 1.866,3.62 -0.631,4.369c-5.025,1.509 -10.281,1.591 -15.266,-0.012c-2.946,-0.948 -2.966,-3.55 -0.175,-4.662c3.371,-1.342 3.861,-3.784 3.932,-6.671c0.423,-17.091 0.431,-34.185 -0.009,-51.276c-0.068,-2.627 -0.111,-5.427 -3.457,-6.456c-1.398,-0.43 -2.631,-1.299 -2.23,-3.063c0.424,-1.864 2.017,-2.353 3.617,-2.387c4.231,-0.092 8.464,-0.031 12.697,-0.031l0,-0.345" style="fill:#2b2a29;fill-rule:nonzero;"/><path d="M61.095,182.77c0.843,-2.61 2.08,-5.171 2.412,-7.845c0.299,-2.407 -0.325,-4.965 -2.339,-6.803c-0.259,-0.236 -0.695,-0.375 -0.599,-0.797c0.086,-0.376 0.474,-0.489 0.831,-0.598c1,-0.306 2.023,-0.237 3.037,-0.176c0.636,0.038 1.477,-0.03 1.732,0.668c0.295,0.806 -0.618,0.836 -1.063,1.157c-0.495,0.358 -0.62,0.899 -0.499,1.447c0.979,4.411 2.415,8.681 3.861,12.929c0.659,-0.123 0.644,-0.566 0.751,-0.872c1.352,-3.837 2.612,-7.703 3.623,-11.649c0.254,-0.99 0.265,-1.77 -0.868,-2.171c-0.333,-0.118 -0.717,-0.313 -0.649,-0.743c0.064,-0.402 0.463,-0.561 0.817,-0.606c0.769,-0.097 1.546,-0.181 2.319,-0.179c0.764,0.002 1.758,-0.078 2.059,0.728c0.328,0.881 -0.802,0.818 -1.239,1.223c-0.697,0.646 -0.947,1.502 -1.216,2.36c-1.577,5.022 -3.143,10.048 -4.754,15.06c-0.168,0.521 -0.192,1.405 -0.868,1.409c-0.663,0.003 -0.736,-0.852 -0.918,-1.39c-0.999,-2.945 -1.961,-5.902 -2.985,-9.001c-0.849,1.177 -0.976,2.549 -1.419,3.784c-0.667,1.857 -1.245,3.745 -1.889,5.61c-0.147,0.427 -0.224,1.057 -0.809,1.041c-0.576,-0.016 -0.636,-0.637 -0.772,-1.076c-1.441,-4.626 -2.82,-9.272 -4.328,-13.875c-0.536,-1.637 -0.525,-3.596 -2.451,-4.578c-0.649,-0.33 -0.177,-0.845 0.326,-1.004c1.464,-0.465 2.963,-0.471 4.431,-0.049c0.972,0.279 1.001,0.896 0.117,1.289c-0.909,0.404 -1.124,1.013 -0.94,1.862c0.948,4.372 2.336,8.609 3.787,12.825c0.167,0.007 0.335,0.013 0.502,0.02" style="fill:#2c2a2a;fill-rule:nonzero;"/><path d="M42.712,175.455c4.465,0.004 4.474,0.004 4.39,-4.551c-0.021,-1.102 0.216,-2.284 -1.197,-2.898c-0.691,-0.3 -0.529,-0.92 0.135,-1.167c1.333,-0.497 2.715,-0.491 4.055,-0.029c0.755,0.261 0.978,0.876 0.169,1.259c-0.965,0.456 -1.02,1.192 -1.063,2.054c-0.223,4.498 -0.218,8.995 0.008,13.493c0.039,0.785 -0.007,1.584 0.956,1.909c0.368,0.124 0.628,0.391 0.521,0.814c-0.099,0.39 -0.447,0.584 -0.803,0.614c-0.834,0.07 -1.675,0.104 -2.513,0.094c-0.647,-0.008 -1.446,0.098 -1.765,-0.61c-0.385,-0.851 0.594,-0.846 0.971,-1.215c0.377,-0.368 0.473,-0.826 0.48,-1.309c0.027,-1.86 0.02,-3.72 0.059,-5.579c0.015,-0.722 -0.24,-1.121 -0.993,-1.196c-2.215,-0.218 -4.429,-0.225 -6.646,-0.049c-0.797,0.064 -1.171,0.441 -1.148,1.267c0.052,1.918 0.077,3.838 0.091,5.757c0.005,0.68 0.284,1.14 0.912,1.392c0.357,0.144 0.64,0.364 0.571,0.793c-0.067,0.417 -0.431,0.59 -0.773,0.646c-1.191,0.192 -2.392,0.18 -3.586,0.017c-0.369,-0.051 -0.696,-0.255 -0.817,-0.622c-0.141,-0.43 0.158,-0.678 0.506,-0.809c0.905,-0.341 1.032,-1.09 1.033,-1.9c0.007,-4.499 0.009,-8.999 0.005,-13.498c-0.001,-0.87 -0.178,-1.568 -1.098,-2.055c-0.935,-0.495 -0.53,-1.022 0.275,-1.326c0.81,-0.307 1.656,-0.266 2.491,-0.213c0.702,0.044 1.58,-0.021 1.903,0.726c0.359,0.83 -0.625,0.83 -1.022,1.186c-0.3,0.27 -0.356,0.609 -0.379,0.971c-0.033,0.538 -0.083,1.078 -0.081,1.617c0.017,4.813 -0.878,4.33 4.353,4.417" style="fill:#2b2a2a;fill-rule:nonzero;"/><path d="M98.863,176.407c0.382,0.162 0.632,0.287 0.893,0.376c2.799,0.964 3.759,2.419 3.565,5.417c-0.163,2.526 -1.713,4.406 -4.365,4.674c-2.548,0.258 -5.139,0.094 -7.711,0.098c-0.438,0 -0.853,-0.171 -0.98,-0.634c-0.148,-0.538 0.286,-0.731 0.673,-0.891c0.751,-0.311 0.809,-0.941 0.83,-1.628c0.143,-4.67 0.144,-9.339 -0.002,-14.008c-0.021,-0.683 -0.077,-1.306 -0.86,-1.598c-0.391,-0.146 -0.769,-0.417 -0.607,-0.946c0.157,-0.512 0.633,-0.486 1.039,-0.523c2.207,-0.2 4.428,-0.391 6.631,-0.107c2.571,0.331 4.017,1.741 4.394,4.028c0.372,2.266 -0.572,4.055 -2.789,5.293c-0.201,0.112 -0.39,0.245 -0.711,0.449" style="fill:#2c2b2a;fill-rule:nonzero;"/><path d="M132.411,183.007c0,-4.711 0.002,-8.952 -0.003,-13.192c0,-0.686 -0.116,-1.304 -0.887,-1.594c-0.386,-0.145 -0.799,-0.389 -0.654,-0.915c0.134,-0.485 0.61,-0.559 1.014,-0.608c0.65,-0.08 1.316,-0.148 1.964,-0.093c0.566,0.049 1.316,0 1.535,0.686c0.229,0.716 -0.506,0.8 -0.931,1.082c-0.73,0.484 -0.556,1.275 -0.563,1.967c-0.047,4.976 -0.061,9.951 -0.11,14.926c-0.006,0.623 0.306,1.503 -0.437,1.782c-0.836,0.313 -1.245,-0.53 -1.625,-1.114c-3.131,-4.818 -6.244,-9.649 -9.364,-14.475c-0.151,-0.234 -0.313,-0.462 -0.617,-0.909c0,4.694 -0.008,9.094 0.008,13.495c0.002,0.622 0.231,1.166 0.884,1.431c0.396,0.16 0.83,0.377 0.635,0.9c-0.154,0.416 -0.574,0.594 -1.016,0.616c-0.599,0.029 -1.199,0.064 -1.797,0.038c-0.638,-0.028 -1.433,0.1 -1.696,-0.68c-0.247,-0.735 0.538,-0.814 0.951,-1.078c0.57,-0.363 0.489,-0.923 0.51,-1.443c0.188,-4.674 0.183,-9.349 0.007,-14.024c-0.026,-0.681 -0.067,-1.31 -0.865,-1.591c-0.391,-0.138 -0.777,-0.39 -0.621,-0.931c0.145,-0.497 0.618,-0.537 1.008,-0.633c1.358,-0.335 2.231,0.24 2.963,1.406c2.734,4.361 5.539,8.677 8.326,13.005c0.349,0.542 0.746,1.054 1.381,1.946" style="fill:#2c2b2a;fill-rule:nonzero;"/><path d="M111.117,166.572c1.258,0 2.516,-0.005 3.774,0.002c0.662,0.004 1.519,-0.539 1.876,0.437c0.371,1.012 0.64,2.134 0.181,3.152c-0.328,0.724 -0.786,0.193 -1.004,-0.227c-0.398,-0.765 -0.801,-1.564 -1.766,-1.597c-1.729,-0.057 -3.468,-0.226 -5.187,0.127c-0.151,0.031 -0.293,0.202 -0.4,0.339c-0.274,0.348 -0.498,6.1 -0.226,6.409c0.473,0.536 1.124,0.243 1.693,0.275c1.696,0.098 3.497,0.321 3.487,-2.262c-0.002,-0.254 0.149,-0.604 0.542,-0.596c0.383,0.008 0.507,0.345 0.545,0.61c0.286,2.025 0.24,4.059 0.025,6.086c-0.026,0.247 -0.28,0.611 -0.494,0.667c-0.461,0.118 -0.551,-0.36 -0.667,-0.671c-0.259,-0.691 0.078,-1.712 -0.857,-2.015c-1.211,-0.394 -2.498,-0.182 -3.75,-0.143c-0.675,0.021 -0.628,0.615 -0.623,1.09c0.015,1.737 0.048,3.475 0.069,5.213c0.016,1.262 0.668,1.846 1.911,1.845c0.778,-0.001 1.56,0 2.335,0.061c2.059,0.16 3.491,-0.56 4.016,-2.693c0.105,-0.426 0.193,-1.089 0.826,-0.934c0.404,0.099 0.445,0.69 0.429,1.099c-0.032,0.776 -0.076,1.563 -0.234,2.32c-0.283,1.355 -0.631,2.219 -2.571,1.956c-2.884,-0.392 -5.859,-0.108 -8.796,-0.128c-0.587,-0.004 -1.303,0.076 -1.544,-0.618c-0.253,-0.731 0.504,-0.834 0.921,-1.101c0.558,-0.357 0.514,-0.908 0.531,-1.438c0.15,-4.674 0.149,-9.347 0.004,-14.021c-0.021,-0.684 -0.079,-1.308 -0.861,-1.6c-0.392,-0.146 -0.772,-0.408 -0.607,-0.941c0.156,-0.505 0.638,-0.546 1.033,-0.553c1.796,-0.032 3.593,-0.014 5.389,-0.014l0,-0.136" style="fill:#2c2b2a;fill-rule:nonzero;"/><path d="M212.623,166.496c1.436,0 2.876,0.068 4.306,-0.026c0.806,-0.054 1.304,0.154 1.43,0.936c0.159,0.987 0.45,2.016 -0.09,2.959c-0.151,0.266 -0.636,0.112 -0.737,-0.183c-0.72,-2.113 -2.447,-1.923 -4.145,-1.904c-3.898,0.044 -3.523,-0.309 -3.656,3.602c-0.004,0.119 -0.007,0.239 -0.005,0.359c0.063,3.916 -0.694,3.14 3.288,3.275c1.365,0.046 1.794,-0.668 1.857,-1.849c0.023,-0.429 0.108,-0.973 0.561,-1.02c0.664,-0.069 0.671,0.613 0.714,1.037c0.186,1.849 0.25,3.705 -0.054,5.551c-0.056,0.343 -0.163,0.798 -0.594,0.784c-0.388,-0.013 -0.524,-0.418 -0.594,-0.779c-0.143,-0.735 0.037,-1.7 -0.917,-1.957c-1.222,-0.328 -2.5,-0.189 -3.751,-0.089c-0.563,0.044 -0.546,0.582 -0.54,0.983c0.031,1.917 0.087,3.833 0.148,5.749c0.019,0.588 0.288,1.092 0.872,1.225c1.474,0.334 2.978,0.213 4.475,0.179c1.914,-0.043 2.432,-1.453 2.923,-2.909c0.115,-0.339 0.248,-0.762 0.674,-0.689c0.418,0.073 0.458,0.525 0.45,0.881c-0.016,0.777 0.013,1.571 -0.137,2.326c-0.288,1.448 -0.586,2.51 -2.743,2.182c-2.812,-0.427 -5.736,-0.111 -8.612,-0.121c-0.599,-0.002 -1.303,0.065 -1.596,-0.568c-0.34,-0.731 0.426,-0.854 0.839,-1.114c0.683,-0.43 0.644,-1.115 0.647,-1.759c0.014,-4.493 0.013,-8.987 0,-13.48c-0.003,-0.783 -0.03,-1.575 -0.993,-1.902c-0.335,-0.114 -0.661,-0.406 -0.571,-0.818c0.106,-0.486 0.561,-0.618 0.985,-0.622c1.855,-0.021 3.71,-0.009 5.566,-0.009l0,-0.23" style="fill:#2c2b2a;fill-rule:nonzero;"/><path d="M169.287,176.8c2.371,1.146 2.942,3.317 3.544,5.568c0.343,1.284 -0.145,3.365 2.405,3.225c0.64,-0.036 0.314,0.708 -0.025,1.055c-1.209,1.242 -3.277,0.72 -3.868,-1.065c-0.581,-1.756 -0.909,-3.595 -1.491,-5.351c-0.686,-2.073 -1.853,-2.841 -3.819,-2.928c-1.051,-0.047 -1.577,0.256 -1.531,1.391c0.066,1.617 0.031,3.237 0.087,4.854c0.028,0.838 0.151,1.579 1.102,2.052c1.038,0.515 0.431,1.144 -0.274,1.303c-0.862,0.193 -1.785,0.139 -2.682,0.141c-0.652,0.001 -1.469,0.067 -1.753,-0.624c-0.335,-0.815 0.607,-0.866 1.03,-1.203c0.452,-0.359 0.38,-0.865 0.408,-1.315c0.295,-4.67 0.264,-9.343 0.032,-14.015c-0.041,-0.834 -0.279,-1.425 -1.106,-1.851c-0.835,-0.431 -0.545,-1.121 0.219,-1.2c2.79,-0.287 5.641,-0.817 8.362,0.214c3.409,1.293 4.008,5.957 1.159,8.468c-0.524,0.462 -1.143,0.818 -1.799,1.281" style="fill:#2b2a29;fill-rule:nonzero;"/><path d="M192.573,177.328c0.037,2.194 -0.395,4.282 -1.484,6.2c-2.857,5.032 -9.366,5.437 -12.854,0.811c-2.836,-3.761 -3.128,-10.243 -0.643,-14.269c3.119,-5.052 9.896,-5.118 13.074,-0.097c1.413,2.232 1.961,4.725 1.907,7.355" style="fill:#2b2a29;fill-rule:nonzero;"/><path d="M223.907,177.506c0,2.419 -0.001,4.488 0.001,6.558c0,0.662 0.291,1.155 0.905,1.42c0.348,0.149 0.696,0.339 0.643,0.744c-0.061,0.469 -0.471,0.687 -0.907,0.741c-1.194,0.148 -2.41,0.244 -3.578,-0.059c-0.788,-0.204 -1.183,-0.853 -0.239,-1.32c0.969,-0.479 0.999,-1.212 1.028,-2.067c0.154,-4.499 0.157,-8.997 -0.005,-13.495c-0.029,-0.797 -0.067,-1.482 -0.98,-1.904c-0.909,-0.421 -0.739,-1.042 0.146,-1.338c1.282,-0.428 2.608,-0.434 3.888,0.011c0.948,0.331 0.926,0.94 0.088,1.34c-0.708,0.338 -0.997,0.801 -0.998,1.523c-0.003,1.897 -0.001,3.795 -0.001,6.286c1.929,-2.534 3.538,-4.637 5.129,-6.755c0.128,-0.17 0.213,-0.455 0.172,-0.656c-0.361,-1.76 -0.147,-2.022 1.746,-2.018c0.359,0 0.736,-0.019 1.071,0.083c0.484,0.146 1.176,0.117 1.236,0.824c0.053,0.622 -0.572,0.644 -0.961,0.889c-2.822,1.779 -4.377,4.704 -6.434,7.176c-0.417,0.502 0.046,0.91 0.322,1.266c1.872,2.417 3.764,4.819 5.652,7.224c0.571,0.728 1.292,1.237 2.184,1.5c0.416,0.122 0.845,0.295 0.761,0.826c-0.076,0.477 -0.484,0.651 -0.928,0.702c-1.351,0.157 -2.579,0.133 -3.514,-1.169c-1.784,-2.482 -3.671,-4.889 -5.521,-7.323c-0.202,-0.266 -0.446,-0.5 -0.906,-1.009" style="fill:#2c2b2a;fill-rule:nonzero;"/><path d="M158.673,28.531l-71.735,0c7.791,-4.114 14.453,-7.656 21.138,-11.155c5.122,-2.681 10.267,-7.364 15.413,-7.379c5.144,-0.015 10.32,4.629 15.448,7.296c6.654,3.46 13.274,6.983 19.909,10.479c-0.058,0.253 -0.115,0.506 -0.173,0.759" style="fill:#0178be;fill-rule:nonzero;"/><path d="M81.115,180.146c-0.239,-0.002 -0.479,-0.002 -0.718,-0.002c-2.496,0.007 -3.923,1.561 -3.83,4.079c0.028,0.768 0.521,1.011 1.058,1.275c0.342,0.167 0.638,0.374 0.546,0.798c-0.084,0.391 -0.422,0.594 -0.779,0.651c-1.189,0.191 -2.387,0.184 -3.578,0.01c-0.351,-0.052 -0.706,-0.221 -0.791,-0.624c-0.087,-0.416 0.142,-0.674 0.527,-0.806c1.049,-0.358 1.344,-1.302 1.655,-2.199c1.795,-5.19 3.574,-10.385 5.344,-15.583c0.186,-0.544 0.098,-1.285 0.947,-1.283c0.784,0.002 0.912,0.711 1.096,1.246c1.727,5.022 3.428,10.053 5.131,15.083c0.381,1.122 0.607,2.289 1.876,2.891c0.779,0.37 0.43,0.931 -0.186,1.115c-1.518,0.453 -3.085,0.422 -4.604,0.038c-0.756,-0.191 -0.984,-0.858 -0.155,-1.239c2.208,-1.013 0.739,-2.513 0.574,-3.816c-0.185,-1.459 -1.225,-1.742 -2.497,-1.639c-0.536,0.043 -1.077,0.007 -1.616,0.005" style="fill:#2c2b2a;fill-rule:nonzero;"/><path d="M67.975,32.986c-0.635,0.454 -1.27,0.908 -1.906,1.361l-7.241,0c0.441,-1.764 1.961,-1.966 3.025,-2.522c19.669,-10.282 39.374,-20.497 59.049,-30.77c1.85,-0.966 3.332,-1.593 5.548,-0.409c20.128,10.758 40.342,21.354 60.527,32.007c0.5,0.264 0.946,0.632 1.928,1.297c-4.55,0.827 -8.017,0.041 -11.58,-1.872c-16.665,-8.946 -33.47,-17.63 -50.149,-26.549c-2.491,-1.333 -4.383,-1.331 -6.883,-0.003c-17.391,9.246 -34.868,18.326 -52.318,27.46" style="fill:#020202;fill-rule:nonzero;"/><path d="M19.419,176.697c-0.088,-2.519 0.454,-4.885 1.896,-6.982c2.011,-2.927 4.878,-3.939 8.317,-2.987c0.404,0.112 0.811,0.215 1.21,0.341c0.621,0.196 1.44,-0.642 1.902,0.371c0.485,1.062 0.611,2.188 0.532,3.333c-0.023,0.328 -0.092,0.767 -0.563,0.796c-0.428,0.026 -0.621,-0.308 -0.737,-0.659c-0.879,-2.67 -2.916,-3.312 -5.414,-3.017c-2.471,0.291 -3.77,1.956 -4.399,4.175c-1.043,3.673 -0.701,7.277 1.116,10.628c2.184,4.028 6.401,4.199 9.055,0.47c0.225,-0.316 0.342,-0.879 0.894,-0.639c0.359,0.157 0.352,0.616 0.321,0.958c-0.1,1.115 -0.117,2.118 -1.515,2.714c-6.679,2.848 -11.953,-0.395 -12.609,-7.884c-0.047,-0.535 -0.006,-1.078 -0.006,-1.618" style="fill:#2c2b2a;fill-rule:nonzero;"/><path d="M242.021,176.514c0,2.157 -0.049,4.316 0.021,6.471c0.033,1.018 -0.116,2.141 1.234,2.701c0.736,0.306 0.375,0.994 -0.214,1.159c-1.34,0.376 -2.741,0.381 -4.079,0.006c-0.706,-0.197 -1.019,-0.854 -0.156,-1.241c0.969,-0.436 1.116,-1.195 1.126,-2.036c0.051,-4.674 0.071,-9.348 0.098,-14.023c0.003,-0.555 -0.028,-1.18 -0.752,-1.206c-1.042,-0.038 -2.22,-0.37 -2.921,0.804c-0.273,0.457 -0.418,0.989 -0.658,1.468c-0.225,0.45 -0.311,1.248 -0.959,1.07c-0.575,-0.157 -0.45,-0.914 -0.412,-1.44c0.047,-0.653 0.159,-1.303 0.273,-1.95c0.231,-1.313 0.758,-1.787 2.323,-1.626c2.726,0.281 5.519,0.236 8.252,-0.018c1.384,-0.128 1.866,0.292 2.14,1.433c0.069,0.291 0.22,0.577 0.222,0.866c0.003,0.924 0.551,2.352 -0.321,2.627c-0.97,0.306 -1.002,-1.199 -1.308,-1.937c-0.652,-1.58 -1.954,-1.453 -3.177,-1.29c-1.251,0.167 -0.777,1.306 -0.8,2.049c-0.062,2.036 -0.021,4.075 -0.021,6.113l0.089,0" style="fill:#2b2a29;fill-rule:nonzero;"/><path d="M200.896,175.841c0,-1.857 0.007,-3.714 -0.003,-5.571c-0.005,-0.901 -0.005,-1.734 -1.085,-2.213c-0.806,-0.357 -0.583,-0.939 0.166,-1.259c0.854,-0.364 1.764,-0.316 2.66,-0.262c0.704,0.042 1.591,-0.011 1.884,0.748c0.301,0.783 -0.664,0.779 -1.038,1.159c-0.551,0.557 -0.474,1.331 -0.48,2.045c-0.034,3.895 0.014,7.792 -0.102,11.684c-0.099,3.31 -1.726,5.189 -4.395,5.376c-2.96,0.208 -5.45,-2.635 -4.68,-5.351c0.225,-0.794 0.568,-1.566 1.584,-1.284c0.893,0.248 0.857,1.058 0.74,1.789c-0.363,2.259 0.055,3.173 1.598,3.407c1.665,0.253 2.831,-0.843 3.122,-2.906c0.345,-2.449 0.12,-4.908 0.029,-7.362" style="fill:#2c2b2a;fill-rule:nonzero;"/><path d="M95.147,39.827c2.528,-0.042 4.992,0.316 7.421,1.033c1.025,0.302 2.509,0.933 3.108,0.493c4.812,-3.529 5.473,0.821 6.778,3.535c1.227,2.549 1.745,5.363 1.81,8.205c0.036,1.553 0.078,3.383 -1.768,3.944c-1.684,0.511 -2.423,-1.075 -3.22,-2.195c-1.088,-1.529 -1.971,-3.22 -3.164,-4.657c-3.61,-4.352 -8.268,-6.08 -13.829,-4.915c-4.859,1.019 -7.554,4.277 -8.388,9.025c-0.989,5.629 0.177,10.593 5.033,14.205c5.067,3.769 11.145,5.697 16.431,9.069c9.262,5.909 12.67,15.14 9.426,25.633c-4.527,14.641 -25.421,20.215 -36.88,9.839c-2.853,-2.582 -5.176,-14.631 -3.458,-18.287c0.305,-0.648 0.894,-1.446 1.501,-1.605c1.047,-0.275 1.733,0.67 2.05,1.533c0.861,2.344 1.58,4.739 2.357,7.114c2.272,6.94 7.073,10.662 13.758,10.668c6.264,0.005 11.287,-3.559 13.218,-9.379c2.225,-6.706 0.354,-12.792 -5.867,-16.787c-4.455,-2.862 -9.424,-4.911 -14.074,-7.484c-10.67,-5.904 -14.322,-16.941 -9.398,-28.08c3.073,-6.953 9.266,-10.892 17.155,-10.907" style="fill:#fdfdfd;fill-rule:nonzero;"/><path d="M148.296,166.189c0,-1.498 0.008,-2.997 -0.003,-4.495c-0.006,-0.801 0.226,-1.359 1.109,-1.582c3.438,-0.868 6.696,0.839 7.396,3.917c0.96,4.221 -0.824,7.274 -4.693,8.025c-0.352,0.069 -0.709,0.122 -1.066,0.147c-2.699,0.19 -2.849,0.049 -2.84,-2.596c0.004,-1.138 0.001,-2.277 0.001,-3.416l0.096,0" style="fill:#fdfdfd;fill-rule:nonzero;"/><path d="M142.867,62.148c0,-4.06 0.018,-8.121 -0.006,-12.181c-0.016,-2.675 1.245,-4.043 3.942,-4.128c6.02,-0.187 12.317,-0.473 15.979,5.412c3.704,5.952 3.578,12.547 0.657,18.843c-2.62,5.645 -13.573,9.462 -19.262,7.188c-1.574,-0.629 -1.575,-1.676 -1.571,-2.95c0.012,-4.061 0.005,-8.123 0.005,-12.184l0.256,0" style="fill:#fdfdfd;fill-rule:nonzero;"/><path d="M93.896,180.991c0,-0.12 -0.027,-0.248 0.004,-0.358c0.313,-1.1 -0.808,-2.719 0.771,-3.286c2.052,-0.737 5.19,0.678 5.935,2.366c0.728,1.649 0.414,3.762 -0.724,4.87c-1.056,1.028 -3.436,1.386 -4.912,0.794c-0.714,-0.287 -1.024,-0.767 -1.017,-1.509c0.009,-0.959 0.002,-1.918 0.002,-2.877l-0.059,0" style="fill:#fcfcfc;fill-rule:nonzero;"/><path d="M93.901,171.956c0,-0.359 -0.056,-0.728 0.011,-1.074c0.18,-0.936 -0.541,-2.297 0.667,-2.73c1.491,-0.535 3.121,-0.344 4.387,0.774c1.266,1.117 1.258,2.664 0.965,4.163c-0.25,1.281 -1.161,2.027 -2.407,2.392c-3.16,0.924 -3.636,0.586 -3.633,-2.629c0.001,-0.298 0,-0.597 0,-0.896l0.01,0Z" style="fill:#fcfcfc;fill-rule:nonzero;"/><path d="M164.59,172.145c0,-0.479 -0.095,-0.982 0.02,-1.431c0.238,-0.935 -0.583,-2.305 0.97,-2.721c1.747,-0.468 3.98,0.483 4.605,1.96c0.676,1.596 0.588,3.195 -0.479,4.589c-1.053,1.375 -2.617,1.539 -4.22,1.474c-0.768,-0.031 -0.992,-0.447 -0.946,-1.178c0.056,-0.895 0.013,-1.795 0.013,-2.693l0.037,0" style="fill:#fcfcfc;fill-rule:nonzero;"/><path d="M178.158,176.372c-0.011,-2.434 0.268,-4.263 1.21,-5.921c1.712,-3.014 5.221,-3.554 7.783,-1.23c3.37,3.057 4.283,10.772 1.722,14.551c-1.917,2.826 -5.719,3.062 -8.022,0.422c-2.081,-2.385 -2.583,-5.327 -2.693,-7.822" style="fill:#fdfdfd;fill-rule:nonzero;"/><path d="M81.256,170.083c1.275,3.056 2.181,5.667 2.988,8.438c-1.058,0 -1.946,0.003 -2.834,-0.001c-3.162,-0.013 -3.17,-0.017 -2.091,-3.097c0.569,-1.625 1.173,-3.238 1.937,-5.34" style="fill:#fbfbfb;fill-rule:nonzero;"/></g></g></svg>